#N canvas 276 196 1164 744 12;
#X obj 67 59 loadbang;
#X obj 148 621 s pd-\$0-canvas;
#X obj 299 537 t a a;
#X obj 590 59 namecanvas \$0-canvas;
#X obj 331 561 s \$0-canvas;
#X obj 206 183 moses 2;
#X msg 206 207 2;
#X msg 238 585 clear;
#X obj 227 303 pack f f \$0;
#X obj 67 183 moses 2;
#X msg 67 207 2;
#X text 103 158 colums;
#X obj 148 303 until;
#X msg 191 303 0;
#X obj 148 327 f;
#X obj 179 327 + 1;
#X obj 227 279 * 19;
#X obj 264 279 * 19;
#X obj 148 279 t f b;
#X obj 148 351 t f f;
#X obj 148 423 pack f f f \$0;
#X obj 177 375 * 19;
#X obj 67 159 f \$1;
#X obj 206 159 f \$2;
#X obj 463 673 outlet;
#X obj 463 59 inlet;
#X msg 644 585 all color 1;
#X msg 552 585 \$1 color 0;
#X msg 552 375 \$1 set \$2;
#X obj 552 399 t f a;
#X obj 552 561 t f b;
#N canvas 261 152 1192 654 \$0-canvas 0;
#X obj 800 60 vradio 19 1 0 6 1355-0-snd 1355-0-rcv empty 0 -10 0 12 #fcfcfc #000000 #000000 0;
#X obj 819 60 vradio 19 1 0 6 1355-1-snd 1355-1-rcv empty 0 -10 0 12 #fcfcfc #fcfcfc #000000 0;
#X obj 838 60 vradio 19 1 0 6 1355-2-snd 1355-2-rcv empty 0 -10 0 12 #fcfcfc #fcfcfc #000000 0;
#X obj 857 60 vradio 19 1 0 6 1355-3-snd 1355-3-rcv empty 0 -10 0 12 #fcfcfc #fcfcfc #000000 0;
#X obj 876 60 vradio 19 1 0 6 1355-4-snd 1355-4-rcv empty 0 -10 0 12 #fcfcfc #fcfcfc #000000 0;
#X obj 895 60 vradio 19 1 0 6 1355-5-snd 1355-5-rcv empty 0 -10 0 12 #fcfcfc #fcfcfc #000000 0;
#X obj 800 60 cnv 2 7 2 empty empty empty 20 12 0 12 #000000 #000000 0;
#X obj 800 172 cnv 2 7 2 empty empty empty 20 12 0 12 #000000 #000000 0;
#X coords 0 -1 1 1 114 114 2 800 60;
#X restore 800 60 pd \$0-canvas;
#X obj 85 327 t f b;
#X obj 85 351 * 19;
#X obj 85 375 - 2;
#X obj 85 279 f;
#X obj 463 621 list;
#X obj 463 585 t b l;
#X obj 463 561 t l f;
#X msg 403 399 resize \$1;
#X text 244 158 rows;
#X msg 85 505 obj 800 \$1 cnv 2 7 2 empty empty empty 20 12 0 12 #000000 #000000 0, f 67;
#X msg 299 423 donecanvasdialog 1 -1 2 0 -1 1 1 \$1 \$2 800 60 \, dirty 0;
#X obj 177 399 + 800;
#X msg 148 447 obj \$2 60 vradio 19 1 0 \$3 \$4-\$1-snd \$4-\$1-rcv empty 0 -10 0 12 #fcfcfc #fcfcfc #000000 0, f 89;
#X msg 117 481 obj 800 60 cnv 2 7 2 empty empty empty 20 12 0 12 #000000 #000000 0, f 67;
#X obj 85 399 + 60;
#X obj 463 537 clone 2dradio.cl 2 \$0;
#X obj 463 279 route list bang set resize;
#X obj 597 303 s \$0-size;
#X obj 111 83 r \$0-size;
#X obj 111 107 unpack;
#X obj 206 231 t f b;
#X obj 67 83 t b b;
#X obj 67 231 t b b f f f;
#X msg 307 355 0 0;
#X connect 0 0 53 0;
#X connect 2 0 1 0;
#X connect 2 1 4 0;
#X connect 5 0 6 0;
#X connect 5 1 52 0;
#X connect 6 0 52 0;
#X connect 7 0 1 0;
#X connect 8 0 42 0;
#X connect 9 0 10 0;
#X connect 9 1 54 0;
#X connect 10 0 54 0;
#X connect 12 0 14 0;
#X connect 13 0 14 1;
#X connect 14 0 15 0;
#X connect 14 0 19 0;
#X connect 15 0 14 1;
#X connect 16 0 8 0;
#X connect 17 0 8 1;
#X connect 18 0 12 0;
#X connect 18 1 13 0;
#X connect 19 0 20 0;
#X connect 19 1 21 0;
#X connect 20 0 44 0;
#X connect 21 0 43 0;
#X connect 22 0 9 0;
#X connect 23 0 5 0;
#X connect 25 0 48 0;
#X connect 26 0 47 0;
#X connect 27 0 47 0;
#X connect 28 0 29 0;
#X connect 29 0 30 0;
#X connect 29 1 47 0;
#X connect 30 0 27 0;
#X connect 30 1 26 0;
#X connect 32 0 33 0;
#X connect 32 1 45 0;
#X connect 33 0 34 0;
#X connect 34 0 46 0;
#X connect 35 0 32 0;
#X connect 36 0 24 0;
#X connect 37 0 36 0;
#X connect 37 1 36 1;
#X connect 38 0 37 0;
#X connect 38 1 30 0;
#X connect 39 0 47 0;
#X connect 41 0 1 0;
#X connect 42 0 2 0;
#X connect 43 0 20 1;
#X connect 44 0 1 0;
#X connect 45 0 1 0;
#X connect 46 0 41 0;
#X connect 47 0 38 0;
#X connect 48 0 47 0;
#X connect 48 1 36 0;
#X connect 48 2 28 0;
#X connect 48 2 36 1;
#X connect 48 3 49 0;
#X connect 50 0 51 0;
#X connect 51 0 9 0;
#X connect 51 1 5 0;
#X connect 52 0 17 0;
#X connect 52 0 20 2;
#X connect 52 0 35 1;
#X connect 52 1 7 0;
#X connect 53 0 22 0;
#X connect 53 1 23 0;
#X connect 54 0 55 0;
#X connect 54 1 35 0;
#X connect 54 2 18 0;
#X connect 54 3 16 0;
#X connect 54 4 39 0;
#X connect 55 0 28 0;
#X connect 55 0 36 1;
#X coords 0 -1 1 1 114 114 2 800 60;
