#N canvas 269 270 1164 710 12;
#X obj 157 26 loadbang;
#X obj 108 588 s pd-\$0-canvas;
#X obj 259 504 t a a;
#X obj 580 26 namecanvas \$0-canvas;
#X obj 291 528 s \$0-canvas;
#X obj 166 150 moses 2;
#X msg 166 174 2;
#X msg 217 552 clear;
#X obj 187 270 pack f f \$0;
#X obj 88 150 moses 2;
#X msg 88 174 2;
#X text 35 125 colums;
#X obj 108 270 until;
#X msg 151 270 0;
#X obj 108 294 f;
#X obj 139 294 + 1;
#X obj 187 246 * 19;
#X obj 224 246 * 19;
#X obj 108 246 t f b;
#X obj 166 198 t f;
#X obj 108 318 t f f;
#X obj 108 390 pack f f f \$0;
#X obj 137 342 * 19;
#X msg 108 414 obj \$2 0 vradio 19 1 0 \$3 \$4-\$1-snd \$4-\$1-rcv empty 0 -10 0 12 #fcfcfc #fcfcfc #000000 0, f 88;
#X obj 88 126 f \$1;
#X obj 166 126 f \$2;
#X obj 443 640 outlet;
#X obj 443 26 inlet;
#X msg 643 552 all color 1;
#X msg 551 552 \$1 color 0;
#X obj 157 50 t b b b b;
#X msg 327 294 0 set 0;
#X obj 443 246 route list bang set;
#X msg 551 294 \$1 set \$2;
#X obj 327 318 t f a;
#X obj 551 318 t f a;
#X obj 551 528 t f b;
#N canvas -552 -402 450 300 \$0-canvas 0;
#X obj 800 0 vradio 19 1 0 18 2471-0-snd 2471-0-rcv empty 0 -10 0 12 #fcfcfc #fcfcfc #000000 0;
#X obj 819 0 vradio 19 1 0 18 2471-1-snd 2471-1-rcv empty 0 -10 0 12 #fcfcfc #fcfcfc #000000 0;
#X obj 838 0 vradio 19 1 0 18 2471-2-snd 2471-2-rcv empty 0 -10 0 12 #fcfcfc #fcfcfc #000000 0;
#X obj 857 0 vradio 19 1 0 18 2471-3-snd 2471-3-rcv empty 0 -10 0 12 #fcfcfc #fcfcfc #000000 0;
#X obj 876 0 vradio 19 1 0 18 2471-4-snd 2471-4-rcv empty 0 -10 0 12 #fcfcfc #fcfcfc #000000 0;
#X obj 895 0 vradio 19 1 0 18 2471-5-snd 2471-5-rcv empty 0 -10 0 12 #fcfcfc #fcfcfc #000000 0;
#X obj 914 0 vradio 19 1 0 18 2471-6-snd 2471-6-rcv empty 0 -10 0 12 #fcfcfc #fcfcfc #000000 0;
#X obj 933 0 vradio 19 1 0 18 2471-7-snd 2471-7-rcv empty 0 -10 0 12 #fcfcfc #fcfcfc #000000 0;
#X obj 952 0 vradio 19 1 0 18 2471-8-snd 2471-8-rcv empty 0 -10 0 12 #fcfcfc #fcfcfc #000000 0;
#X obj 971 0 vradio 19 1 0 18 2471-9-snd 2471-9-rcv empty 0 -10 0 12 #fcfcfc #fcfcfc #000000 0;
#X obj 990 0 vradio 19 1 0 18 2471-10-snd 2471-10-rcv empty 0 -10 0 12 #fcfcfc #fcfcfc #000000 0;
#X obj 1009 0 vradio 19 1 0 18 2471-11-snd 2471-11-rcv empty 0 -10 0 12 #fcfcfc #fcfcfc #000000 0;
#X obj 1028 0 vradio 19 1 0 18 2471-12-snd 2471-12-rcv empty 0 -10 0 12 #fcfcfc #fcfcfc #000000 0;
#X obj 1047 0 vradio 19 1 0 18 2471-13-snd 2471-13-rcv empty 0 -10 0 12 #fcfcfc #fcfcfc #000000 0;
#X obj 1066 0 vradio 19 1 0 18 2471-14-snd 2471-14-rcv empty 0 -10 0 12 #fcfcfc #fcfcfc #000000 0;
#X obj 1085 0 vradio 19 1 0 18 2471-15-snd 2471-15-rcv empty 0 -10 0 12 #fcfcfc #fcfcfc #000000 0;
#X obj 1104 0 vradio 19 1 0 18 2471-16-snd 2471-16-rcv empty 0 -10 0 12 #fcfcfc #fcfcfc #000000 0;
#X obj 1123 0 vradio 19 1 0 18 2471-17-snd 2471-17-rcv empty 0 -10 0 12 #fcfcfc #000000 #000000 0;
#X obj 800 0 cnv 2 7 2 empty empty empty 20 12 0 12 #000000 #000000 0;
#X obj 800 340 cnv 2 7 2 empty empty empty 20 12 0 12 #000000 #000000 0;
#X coords 0 -1 1 1 342 342 2 800 0;
#X restore 800 0 pd \$0-canvas;
#X obj 45 294 t f b;
#X obj 45 318 * 19;
#X obj 45 342 - 2;
#X obj 45 246 f;
#X obj 443 588 list;
#X obj 443 552 t b l;
#X obj 443 528 t l f;
#X msg 393 294 resize \$1;
#X text 204 125 rows;
#X msg 259 390 donecanvasdialog 1 -1 2 0 -1 1 1 \$1 \$2 800 0 \, dirty 0;
#X msg 77 448 obj 800 0 cnv 2 7 2 empty empty empty 20 12 0 12 #000000 #000000 0, f 66;
#X msg 45 472 obj 800 \$1 cnv 2 7 2 empty empty empty 20 12 0 12 #000000 #000000 0, f 67;
#X obj 137 366 + 800;
#X obj 88 198 t b f f f;
#X obj 443 504 clone 2dradio-rcv.cl 32 \$0;
#X obj 345 245 pipe f 10;
#X connect 0 0 30 0;
#X connect 2 0 1 0;
#X connect 2 1 4 0;
#X connect 5 0 6 0;
#X connect 5 1 19 0;
#X connect 6 0 19 0;
#X connect 7 0 1 0;
#X connect 8 0 47 0;
#X connect 9 0 10 0;
#X connect 9 1 51 0;
#X connect 10 0 51 0;
#X connect 12 0 14 0;
#X connect 13 0 14 1;
#X connect 14 0 15 0;
#X connect 14 0 20 0;
#X connect 15 0 14 1;
#X connect 16 0 8 0;
#X connect 17 0 8 1;
#X connect 18 0 12 0;
#X connect 18 1 13 0;
#X connect 19 0 17 0;
#X connect 19 0 21 2;
#X connect 19 0 41 1;
#X connect 20 0 21 0;
#X connect 20 1 22 0;
#X connect 21 0 23 0;
#X connect 22 0 50 0;
#X connect 23 0 1 0;
#X connect 24 0 9 0;
#X connect 25 0 5 0;
#X connect 27 0 32 0;
#X connect 28 0 52 0;
#X connect 29 0 52 0;
#X connect 30 0 31 0;
#X connect 30 1 24 0;
#X connect 30 2 25 0;
#X connect 30 3 7 0;
#X connect 31 0 34 0;
#X connect 32 0 52 0;
#X connect 32 1 42 0;
#X connect 32 2 33 0;
#X connect 32 2 42 1;
#X connect 33 0 35 0;
#X connect 34 0 36 0;
#X connect 34 1 52 0;
#X connect 35 0 36 0;
#X connect 35 1 52 0;
#X connect 36 0 29 0;
#X connect 36 1 28 0;
#X connect 38 0 39 0;
#X connect 38 1 48 0;
#X connect 39 0 40 0;
#X connect 40 0 49 0;
#X connect 41 0 38 0;
#X connect 42 0 26 0;
#X connect 43 0 42 0;
#X connect 43 1 42 1;
#X connect 44 0 43 0;
#X connect 44 1 36 0;
#X connect 45 0 52 0;
#X connect 47 0 2 0;
#X connect 48 0 1 0;
#X connect 49 0 1 0;
#X connect 50 0 21 1;
#X connect 51 0 41 0;
#X connect 51 1 53 0;
#X connect 51 2 18 0;
#X connect 51 3 16 0;
#X connect 52 0 44 0;
#X connect 53 0 45 0;
#X coords 0 -1 1 1 342 342 2 800 0;
