#N canvas 276 196 1164 744 12;
#X obj 197 59 loadbang;
#X obj 148 621 s pd-\$0-canvas;
#X obj 299 537 t a a;
#X obj 620 59 namecanvas \$0-canvas;
#X obj 331 561 s \$0-canvas;
#X obj 206 183 moses 2;
#X msg 206 207 2;
#X msg 257 585 clear;
#X obj 227 303 pack f f \$0;
#X obj 128 183 moses 2;
#X msg 128 207 2;
#X text 75 158 colums;
#X obj 148 303 until;
#X msg 191 303 0;
#X obj 148 327 f;
#X obj 179 327 + 1;
#X obj 227 279 * 19;
#X obj 264 279 * 19;
#X obj 148 279 t f b;
#X obj 206 231 t f;
#X obj 148 351 t f f;
#X obj 148 423 pack f f f \$0;
#X obj 177 375 * 19;
#X obj 128 159 f \$1;
#X obj 206 159 f \$2;
#X obj 483 673 outlet;
#X obj 483 59 inlet;
#X msg 683 585 all color 1;
#X msg 591 585 \$1 color 0;
#X obj 197 83 t b b b b;
#X msg 347 327 0 set 0;
#X obj 483 279 route list bang set;
#X msg 591 327 \$1 set \$2;
#X obj 347 351 t f a;
#X obj 591 351 t f a;
#X obj 591 561 t f b;
#N canvas -552 -402 450 300 \$0-canvas 0;
#X obj 800 60 vradio 19 1 0 3 1778-0-snd 1778-0-rcv empty 0 -10 0 12 #fcfcfc #fcfcfc #000000 0;
#X obj 819 60 vradio 19 1 0 3 1778-1-snd 1778-1-rcv empty 0 -10 0 12 #fcfcfc #000000 #000000 0;
#X obj 838 60 vradio 19 1 0 3 1778-2-snd 1778-2-rcv empty 0 -10 0 12 #fcfcfc #fcfcfc #000000 0;
#X obj 857 60 vradio 19 1 0 3 1778-3-snd 1778-3-rcv empty 0 -10 0 12 #fcfcfc #fcfcfc #000000 0;
#X obj 876 60 vradio 19 1 0 3 1778-4-snd 1778-4-rcv empty 0 -10 0 12 #fcfcfc #fcfcfc #000000 0;
#X obj 800 60 cnv 2 7 2 empty empty empty 20 12 0 12 #000000 #000000 0;
#X obj 800 115 cnv 2 7 2 empty empty empty 20 12 0 12 #000000 #000000 0;
#X coords 0 -1 1 1 95 57 2 800 60;
#X restore 800 60 pd \$0-canvas;
#X obj 85 327 t f b;
#X obj 85 351 * 19;
#X obj 85 375 - 2;
#X obj 85 279 f;
#X obj 483 621 list;
#X obj 483 585 t b l;
#X obj 483 561 t l f;
#X msg 413 327 resize \$1;
#X text 244 158 rows;
#X msg 85 505 obj 800 \$1 cnv 2 7 2 empty empty empty 20 12 0 12 #000000 #000000 0, f 67;
#X obj 483 537 clone 2dradio-rcv.cl 32 \$0;
#X msg 299 423 donecanvasdialog 1 -1 2 0 -1 1 1 \$1 \$2 800 60 \, dirty 0;
#X obj 177 399 + 800;
#X msg 148 447 obj \$2 60 vradio 19 1 0 \$3 \$4-\$1-snd \$4-\$1-rcv empty 0 -10 0 12 #fcfcfc #fcfcfc #000000 0, f 89;
#X msg 117 481 obj 800 60 cnv 2 7 2 empty empty empty 20 12 0 12 #000000 #000000 0, f 67;
#X obj 85 399 + 60;
#X obj 128 231 t b f f f;
#X connect 0 0 29 0;
#X connect 2 0 1 0;
#X connect 2 1 4 0;
#X connect 5 0 6 0;
#X connect 5 1 19 0;
#X connect 6 0 19 0;
#X connect 7 0 1 0;
#X connect 8 0 48 0;
#X connect 9 0 10 0;
#X connect 9 1 53 0;
#X connect 10 0 53 0;
#X connect 12 0 14 0;
#X connect 13 0 14 1;
#X connect 14 0 15 0;
#X connect 14 0 20 0;
#X connect 15 0 14 1;
#X connect 16 0 8 0;
#X connect 17 0 8 1;
#X connect 18 0 12 0;
#X connect 18 1 13 0;
#X connect 19 0 17 0;
#X connect 19 0 21 2;
#X connect 19 0 40 1;
#X connect 20 0 21 0;
#X connect 20 1 22 0;
#X connect 21 0 50 0;
#X connect 22 0 49 0;
#X connect 23 0 9 0;
#X connect 24 0 5 0;
#X connect 26 0 31 0;
#X connect 27 0 47 0;
#X connect 28 0 47 0;
#X connect 29 0 30 0;
#X connect 29 1 23 0;
#X connect 29 2 24 0;
#X connect 29 3 7 0;
#X connect 30 0 33 0;
#X connect 31 0 47 0;
#X connect 31 1 41 0;
#X connect 31 2 32 0;
#X connect 31 2 41 1;
#X connect 32 0 34 0;
#X connect 33 0 35 0;
#X connect 33 1 47 0;
#X connect 34 0 35 0;
#X connect 34 1 47 0;
#X connect 35 0 28 0;
#X connect 35 1 27 0;
#X connect 37 0 38 0;
#X connect 37 1 51 0;
#X connect 38 0 39 0;
#X connect 39 0 52 0;
#X connect 40 0 37 0;
#X connect 41 0 25 0;
#X connect 42 0 41 0;
#X connect 42 1 41 1;
#X connect 43 0 42 0;
#X connect 43 1 35 0;
#X connect 44 0 47 0;
#X connect 46 0 1 0;
#X connect 47 0 43 0;
#X connect 48 0 2 0;
#X connect 49 0 21 1;
#X connect 50 0 1 0;
#X connect 51 0 1 0;
#X connect 52 0 46 0;
#X connect 53 0 40 0;
#X connect 53 1 18 0;
#X connect 53 2 16 0;
#X connect 53 3 44 0;
#X coords 0 -1 1 1 95 57 2 800 60;
