#N canvas 47 320 519 421 12;
#X obj 48 284 r \$2-\$1-snd;
#X obj 48 334 outlet;
#X obj 145 242 s \$2-\$1-rcv;
#X obj 49 21 inlet;
#X obj 145 156 sel 0 1;
#X msg 145 180 color #fcfcfc #000000;
#X msg 169 205 color #fcfcfc #fcfcfc;
#X obj 49 76 route set float color;
#X msg 49 100 set \$1;
#X obj 145 132 change;
#X obj 48 309 i;
#X connect 0 0 10 0;
#X connect 3 0 7 0;
#X connect 4 0 5 0;
#X connect 4 1 6 0;
#X connect 5 0 2 0;
#X connect 6 0 2 0;
#X connect 7 0 8 0;
#X connect 7 1 2 0;
#X connect 7 2 9 0;
#X connect 8 0 2 0;
#X connect 9 0 4 0;
#X connect 10 0 1 0;
