#N canvas 560 275 720 547 12;
#X msg 448 97 set 1 0;
#X listbox 447 472 4 0 0 0 - - - 0;
#X obj 447 423 2dradio 4 2;
#X text 532 422 [2dradio 4 2];
#X text 443 59 [<x> <y>( list sets position without output, f 23;
#X listbox 76 472 5 0 0 0 - - - 0;
#X obj 76 97 bng 19 250 50 0 empty empty empty 0 -10 0 12 #fcfcfc #000000 #000000;
#X msg 231 97 3 14;
#X obj 76 177 2dradio 5 15;
#X text 182 176 [2dradio 5 15];
#X text 73 59 bang outputs current position, f 17;
#X text 229 59 [<x> <y>( list message sets and outputs position, f 25;
#X obj 447 257 2dradio 6 6;
#X text 572 256 [2dradio 6 6];
#X listbox 447 386 4 0 0 0 - - - 0;
#X msg 447 213 resize 6 6;
#X msg 530 213 resize 2 2;
#X text 443 176 [resize <colums> <rows>( allow dynamic resizing, f 24;
#X connect 0 0 8 0;
#X connect 2 0 1 0;
#X connect 6 0 8 0;
#X connect 7 0 8 0;
#X connect 8 0 5 0;
#X connect 12 0 14 0;
#X connect 15 0 12 0;
#X connect 16 0 12 0;
